<?xml version="1.0" standalone="no"?>
<!DOCTYPE svg PUBLIC "-//W3C//DTD SVG 20010904//EN"
 "http://www.w3.org/TR/2001/REC-SVG-20010904/DTD/svg10.dtd">
<svg version="1.0" xmlns="http://www.w3.org/2000/svg"
 width="165.000000pt" height="144.000000pt" viewBox="0 0 165.000000 144.000000"
 preserveAspectRatio="xMidYMid meet">

<g transform="translate(0.000000,144.000000) scale(0.100000,-0.100000)"
fill="#000000" stroke="none">
<path d="M835 1390 c3 -5 2 -10 -3 -10 -4 0 -58 -124 -118 -275 -85 -215 -112
-274 -124 -269 -75 29 -181 46 -269 42 -83 -3 -103 -8 -149 -33 -65 -35 -109
-95 -124 -168 -14 -66 -6 -111 32 -170 75 -119 250 -166 430 -116 132 36 330
141 330 174 0 31 -29 25 -131 -29 -57 -30 -124 -62 -148 -71 -41 -14 -43 -14
-38 3 10 38 319 818 327 825 4 5 18 -17 30 -50 12 -32 59 -155 106 -274 46
-119 84 -220 84 -225 -1 -5 -39 -26 -85 -48 l-83 -39 -91 58 c-91 57 -126 66
-126 30 0 -13 18 -29 57 -51 173 -98 377 -304 562 -571 56 -81 87 -102 99 -69
3 8 -49 149 -117 313 -101 245 -126 298 -142 298 -34 0 -26 -36 41 -199 36
-88 64 -161 62 -163 -3 -2 -23 22 -47 53 -23 31 -89 103 -146 160 l-103 104
68 40 c222 132 428 142 550 27 23 -22 30 -26 23 -11 -14 27 -76 69 -129 88
-85 30 -165 30 -308 1 l-30 -6 -109 278 c-60 153 -116 290 -123 305 -7 15 -13
31 -12 34 1 9 -23 24 -39 24 -7 0 -10 -4 -7 -10z m-330 -584 c84 -27 83 -15 9
-203 l-67 -171 -43 -6 c-99 -13 -217 32 -271 103 -28 36 -33 51 -33 97 0 93
44 154 137 189 48 19 197 13 268 -9z"/>
<path d="M351 189 c-48 -120 -51 -133 -37 -148 24 -23 37 -4 91 132 48 118 51
147 17 147 -15 0 -30 -28 -71 -131z"/>
</g>
</svg>
